# xmcd CD database file generated by OrangeCD 4.3
#
# Track frame offsets:
#	150
#	18678
#	42383
#	58130
#	81488
#	99113
#	120368
#	137500
#	160543
#	173088
#	191725
#
# Disc length: 2803 seconds
#
# Revision: 0
# Processed by: cddbd v1.4PL0 Copyright (c) Steve Scherf et al.
# Submitted via: OrangeCD 4.3
#
DISCID=890af10b
DTITLE=Hammond Gamble - Plugged in and Blue
DYEAR=1995
DGENRE=Blues
TTITLE0=Long Night Blues
TTITLE1=Bring it on Home
TTITLE2=Groom Still Waiting
TTITLE3=It's My Own Fault
TTITLE4=It's Been Too Long
TTITLE5=Believe To My Soul
TTITLE6=Nobody Knows You
TTITLE7=Louise
TTITLE8=Daylight Robbery
TTITLE9=Who Did All This To Me
TTITLE10=Faded Love
EXTD=
EXTT0=
EXTT1=
EXTT2=
EXTT3=
EXTT4=
EXTT5=
EXTT6=
EXTT7=
EXTT8=
EXTT9=
EXTT10=
PLAYORDER=
